<svg width="251" height="100" xmlns="http://www.w3.org/2000/svg" legacy-metrics="false" node-id="1" sillyvg="true" template-height="244" template-width="251" version="1.1">
 <g>
  <title>Layer 1</title>
  <g node-id="641" id="svg_1">
   <g node-id="643" id="svg_2">
    <path d="m244.76,111.05c0,-40.7 -33.08,-73.69 -73.88,-73.69c-0.63,0 -1.26,0.03 -1.89,0.05c-12.88,-21.6 -36.5,-36.07 -63.51,-36.07c-40.8,0 -73.87,32.99 -73.87,73.69c0,0.53 0.02,1.05 0.04,1.58c-22.32,12.68 -37.37,36.61 -37.37,64.06c0,40.7 33.07,73.69 73.87,73.69c2.32,0 4.61,-0.12 6.88,-0.33c13.55,16.38 34.05,26.81 56.99,26.81c37.72,0 68.8,-28.19 73.29,-64.59c23.45,-12.35 39.45,-36.9 39.45,-65.2z" fill="#d6f0ff" fill-rule="nonzero" group-id="1,3" hidden="true" node-id="238" target-height="239.5" target-width="250.48001" target-x="-8.72449" target-y="3.34101" visibility="hidden" id="svg_3"/>
   </g>
   <g node-id="644" id="svg_4">
    <path d="m49.4,50.67l117.77,0l0,148.54l-117.77,0l0,-148.54z" fill="#ffffff" fill-rule="nonzero" group-id="1,4" hidden="true" node-id="242" target-height="148.54199" target-width="117.767" target-x="46.401" target-y="52.671" visibility="hidden" id="svg_5"/>
    <g node-id="658" id="svg_6">
     <path d="m50.4,50.67l145.38,0l0,141.45l-145.38,0l0,-141.45z" fill="#ffffff" fill-opacity="0.33" fill-rule="nonzero" group-id="1,4,18" hidden="true" node-id="246" stroke-opacity="0.33" target-height="141.454" target-width="145.377" target-x="47.401" target-y="52.671" visibility="hidden" id="svg_7"/>
     <path d="m195.78,193.62l-145.38,0c-0.83,0 -1.5,-0.67 -1.5,-1.5l0,-141.45c0,-0.83 0.67,-1.5 1.5,-1.5l145.38,0c0.83,0 1.5,0.67 1.5,1.5l0,141.45c0,0.83 -0.67,1.5 -1.5,1.5zm-143.88,-3l142.38,0l0,-138.45l-142.38,0l0,138.45z" fill="#6e6e96" fill-opacity="0.33" fill-rule="nonzero" group-id="1,4,18" hidden="true" node-id="248" stroke-opacity="0.33" target-height="144.454" target-width="148.377" target-x="45.901" target-y="51.171" visibility="hidden" id="svg_8"/>
     <path d="m147.56,99.24l15.66,0l0,24.31l-15.66,0l0,-24.31z" fill="#bddfff" fill-opacity="0.33" fill-rule="nonzero" group-id="1,4,18" hidden="true" node-id="250" stroke-opacity="0.33" target-height="24.31" target-width="15.658" target-x="144.564" target-y="101.244" visibility="hidden" id="svg_9"/>
     <path d="m163.22,125.05l-15.66,0c-0.82,0 -1.5,-0.67 -1.5,-1.5l0,-24.31c0,-0.82 0.68,-1.5 1.5,-1.5l15.66,0c0.83,0 1.5,0.68 1.5,1.5l0,24.31c0,0.83 -0.67,1.5 -1.5,1.5zm-14.16,-3l12.66,0l0,-21.31l-12.66,0l0,21.31z" fill="#6e6e96" fill-opacity="0.33" fill-rule="nonzero" group-id="1,4,18" hidden="true" node-id="252" stroke-opacity="0.33" target-height="27.31" target-width="18.658" target-x="143.064" target-y="99.744" visibility="hidden" id="svg_10"/>
     <path d="m147.56,129.44l15.66,0l0,24.16l-15.66,0l0,-24.16z" fill="#bddfff" fill-opacity="0.33" fill-rule="nonzero" group-id="1,4,18" hidden="true" node-id="254" stroke-opacity="0.33" target-height="24.15999" target-width="15.658" target-x="144.564" target-y="131.445" visibility="hidden" id="svg_11"/>
     <path d="m163.22,155.1l-15.66,0c-0.82,0 -1.5,-0.67 -1.5,-1.5l0,-24.16c0,-0.82 0.68,-1.5 1.5,-1.5l15.66,0c0.83,0 1.5,0.68 1.5,1.5l0,24.16c0,0.83 -0.67,1.5 -1.5,1.5zm-14.16,-3l12.66,0l0,-21.16l-12.66,0l0,21.16z" fill="#6e6e96" fill-opacity="0.33" fill-rule="nonzero" group-id="1,4,18" hidden="true" node-id="256" stroke-opacity="0.33" target-height="27.15999" target-width="18.658" target-x="143.064" target-y="129.945" visibility="hidden" id="svg_12"/>
     <path d="m125.5,68.67l15.66,0l0,24.68l-15.66,0l0,-24.68z" fill="#bddfff" fill-opacity="0.33" fill-rule="nonzero" group-id="1,4,18" hidden="true" node-id="258" stroke-opacity="0.33" target-height="24.677" target-width="15.66" target-x="122.5" target-y="70.671" visibility="hidden" id="svg_13"/>
     <path d="m141.16,94.85l-15.66,0c-0.83,0 -1.5,-0.67 -1.5,-1.5l0,-24.68c0,-0.83 0.67,-1.5 1.5,-1.5l15.66,0c0.83,0 1.5,0.67 1.5,1.5l0,24.68c0,0.83 -0.67,1.5 -1.5,1.5zm-14.16,-3l12.66,0l0,-21.68l-12.66,0l0,21.68z" fill="#6e6e96" fill-opacity="0.33" fill-rule="nonzero" group-id="1,4,18" hidden="true" node-id="260" stroke-opacity="0.33" target-height="27.677" target-width="18.66" target-x="121" target-y="69.171" visibility="hidden" id="svg_14"/>
     <path d="m125.5,99.24l15.66,0l0,24.31l-15.66,0l0,-24.31z" fill="#bddfff" fill-opacity="0.33" fill-rule="nonzero" group-id="1,4,18" hidden="true" node-id="262" stroke-opacity="0.33" target-height="24.31" target-width="15.66" target-x="122.5" target-y="101.244" visibility="hidden" id="svg_15"/>
     <path d="m141.16,125.05l-15.66,0c-0.83,0 -1.5,-0.67 -1.5,-1.5l0,-24.31c0,-0.82 0.67,-1.5 1.5,-1.5l15.66,0c0.83,0 1.5,0.68 1.5,1.5l0,24.31c0,0.83 -0.67,1.5 -1.5,1.5zm-14.16,-3l12.66,0l0,-21.31l-12.66,0l0,21.31z" fill="#6e6e96" fill-opacity="0.33" fill-rule="nonzero" group-id="1,4,18" hidden="true" node-id="264" stroke-opacity="0.33" target-height="27.31" target-width="18.66" target-x="121" target-y="99.744" visibility="hidden" id="svg_16"/>
     <path d="m169.63,99.24l18.42,0l0,24.31l-18.42,0l0,-24.31z" fill="#bddfff" fill-opacity="0.33" fill-rule="nonzero" group-id="1,4,18" hidden="true" node-id="266" stroke-opacity="0.33" target-height="24.31" target-width="18.425" target-x="166.629" target-y="101.244" visibility="hidden" id="svg_17"/>
     <path d="m188.05,125.05l-18.42,0c-0.83,0 -1.5,-0.67 -1.5,-1.5l0,-24.31c0,-0.82 0.67,-1.5 1.5,-1.5l18.42,0c0.83,0 1.5,0.68 1.5,1.5l0,24.31c0,0.83 -0.67,1.5 -1.5,1.5zm-16.92,-3l15.42,0l0,-21.31l-15.42,0l0,21.31z" fill="#6e6e96" fill-opacity="0.33" fill-rule="nonzero" group-id="1,4,18" hidden="true" node-id="268" stroke-opacity="0.33" target-height="27.31" target-width="21.425" target-x="165.129" target-y="99.744" visibility="hidden" id="svg_18"/>
     <path d="m147.56,68.67l15.66,0l0,24.68l-15.66,0l0,-24.68z" fill="#bddfff" fill-opacity="0.33" fill-rule="nonzero" group-id="1,4,18" hidden="true" node-id="270" stroke-opacity="0.33" target-height="24.677" target-width="15.658" target-x="144.564" target-y="70.671" visibility="hidden" id="svg_19"/>
     <path d="m163.22,94.85l-15.66,0c-0.82,0 -1.5,-0.67 -1.5,-1.5l0,-24.68c0,-0.83 0.68,-1.5 1.5,-1.5l15.66,0c0.83,0 1.5,0.67 1.5,1.5l0,24.68c0,0.83 -0.67,1.5 -1.5,1.5zm-14.16,-3l12.66,0l0,-21.68l-12.66,0l0,21.68z" fill="#6e6e96" fill-opacity="0.33" fill-rule="nonzero" group-id="1,4,18" hidden="true" node-id="272" stroke-opacity="0.33" target-height="27.677" target-width="18.658" target-x="143.064" target-y="69.171" visibility="hidden" id="svg_20"/>
     <path d="m125.5,129.44l15.66,0l0,24.16l-15.66,0l0,-24.16z" fill="#bddfff" fill-opacity="0.33" fill-rule="nonzero" group-id="1,4,18" hidden="true" node-id="274" stroke-opacity="0.33" target-height="24.15999" target-width="15.66" target-x="122.5" target-y="131.445" visibility="hidden" id="svg_21"/>
     <path d="m141.16,155.1l-15.66,0c-0.83,0 -1.5,-0.67 -1.5,-1.5l0,-24.16c0,-0.82 0.67,-1.5 1.5,-1.5l15.66,0c0.83,0 1.5,0.68 1.5,1.5l0,24.16c0,0.83 -0.67,1.5 -1.5,1.5zm-14.16,-3l12.66,0l0,-21.16l-12.66,0l0,21.16z" fill="#6e6e96" fill-opacity="0.33" fill-rule="nonzero" group-id="1,4,18" hidden="true" node-id="276" stroke-opacity="0.33" target-height="27.15999" target-width="18.66" target-x="121" target-y="129.945" visibility="hidden" id="svg_22"/>
     <path d="m169.63,68.67l18.42,0l0,24.68l-18.42,0l0,-24.68z" fill="#bddfff" fill-opacity="0.33" fill-rule="nonzero" group-id="1,4,18" hidden="true" node-id="278" stroke-opacity="0.33" target-height="24.677" target-width="18.425" target-x="166.629" target-y="70.671" visibility="hidden" id="svg_23"/>
     <path d="m188.05,94.85l-18.42,0c-0.83,0 -1.5,-0.67 -1.5,-1.5l0,-24.68c0,-0.83 0.67,-1.5 1.5,-1.5l18.42,0c0.83,0 1.5,0.67 1.5,1.5l0,24.68c0,0.83 -0.67,1.5 -1.5,1.5zm-16.92,-3l15.42,0l0,-21.68l-15.42,0l0,21.68z" fill="#6e6e96" fill-opacity="0.33" fill-rule="nonzero" group-id="1,4,18" hidden="true" node-id="280" stroke-opacity="0.33" target-height="27.677" target-width="21.425" target-x="165.129" target-y="69.171" visibility="hidden" id="svg_24"/>
     <path d="m169.63,129.44l18.42,0l0,24.16l-18.42,0l0,-24.16z" fill="#bddfff" fill-opacity="0.33" fill-rule="nonzero" group-id="1,4,18" hidden="true" node-id="282" stroke-opacity="0.33" target-height="24.15999" target-width="18.425" target-x="166.629" target-y="131.445" visibility="hidden" id="svg_25"/>
     <path d="m188.05,155.1l-18.42,0c-0.83,0 -1.5,-0.67 -1.5,-1.5l0,-24.16c0,-0.82 0.67,-1.5 1.5,-1.5l18.42,0c0.83,0 1.5,0.68 1.5,1.5l0,24.16c0,0.83 -0.67,1.5 -1.5,1.5zm-16.92,-3l15.42,0l0,-21.16l-15.42,0l0,21.16z" fill="#6e6e96" fill-opacity="0.33" fill-rule="nonzero" group-id="1,4,18" hidden="true" node-id="284" stroke-opacity="0.33" target-height="27.15999" target-width="21.425" target-x="165.129" target-y="129.945" visibility="hidden" id="svg_26"/>
     <path d="m58.02,99.24l16.95,0l0,24.31l-16.95,0l0,-24.31z" fill="#bddfff" fill-opacity="0.33" fill-rule="nonzero" group-id="1,4,18" hidden="true" node-id="286" stroke-opacity="0.33" target-height="24.31" target-width="16.942" target-x="55.025" target-y="101.244" visibility="hidden" id="svg_27"/>
     <path d="m74.97,125.05l-16.95,0c-0.82,0 -1.5,-0.67 -1.5,-1.5l0,-24.31c0,-0.82 0.68,-1.5 1.5,-1.5l16.95,0c0.83,0 1.5,0.68 1.5,1.5l0,24.31c0,0.83 -0.67,1.5 -1.5,1.5zm-15.45,-3l13.95,0l0,-21.31l-13.95,0l0,21.31z" fill="#6e6e96" fill-opacity="0.33" fill-rule="nonzero" group-id="1,4,18" hidden="true" node-id="288" stroke-opacity="0.33" target-height="27.31" target-width="19.942" target-x="53.525" target-y="99.744" visibility="hidden" id="svg_28"/>
     <path d="m58.02,68.67l16.95,0l0,24.68l-16.95,0l0,-24.68z" fill="#bddfff" fill-opacity="0.33" fill-rule="nonzero" group-id="1,4,18" hidden="true" node-id="290" stroke-opacity="0.33" target-height="24.677" target-width="16.942" target-x="55.025" target-y="70.671" visibility="hidden" id="svg_29"/>
     <path d="m74.97,94.85l-16.95,0c-0.82,0 -1.5,-0.67 -1.5,-1.5l0,-24.68c0,-0.83 0.68,-1.5 1.5,-1.5l16.95,0c0.83,0 1.5,0.67 1.5,1.5l0,24.68c0,0.83 -0.67,1.5 -1.5,1.5zm-15.45,-3l13.95,0l0,-21.68l-13.95,0l0,21.68z" fill="#6e6e96" fill-opacity="0.33" fill-rule="nonzero" group-id="1,4,18" hidden="true" node-id="292" stroke-opacity="0.33" target-height="27.677" target-width="19.942" target-x="53.525" target-y="69.171" visibility="hidden" id="svg_30"/>
     <path d="m58.02,129.44l16.95,0l0,24.16l-16.95,0l0,-24.16z" fill="#bddfff" fill-opacity="0.33" fill-rule="nonzero" group-id="1,4,18" hidden="true" node-id="294" stroke-opacity="0.33" target-height="24.15999" target-width="16.942" target-x="55.025" target-y="131.445" visibility="hidden" id="svg_31"/>
     <path d="m74.97,155.1l-16.95,0c-0.82,0 -1.5,-0.67 -1.5,-1.5l0,-24.16c0,-0.82 0.68,-1.5 1.5,-1.5l16.95,0c0.83,0 1.5,0.68 1.5,1.5l0,24.16c0,0.83 -0.67,1.5 -1.5,1.5zm-15.45,-3l13.95,0l0,-21.16l-13.95,0l0,21.16z" fill="#6e6e96" fill-opacity="0.33" fill-rule="nonzero" group-id="1,4,18" hidden="true" node-id="296" stroke-opacity="0.33" target-height="27.15999" target-width="19.942" target-x="53.525" target-y="129.945" visibility="hidden" id="svg_32"/>
     <path d="m81.37,129.44l15.66,0l0,24.16l-15.66,0l0,-24.16z" fill="#bddfff" fill-opacity="0.33" fill-rule="nonzero" group-id="1,4,18" hidden="true" node-id="298" stroke-opacity="0.33" target-height="24.15999" target-width="15.656" target-x="78.373" target-y="131.445" visibility="hidden" id="svg_33"/>
     <path d="m97.03,155.1l-15.66,0c-0.83,0 -1.5,-0.67 -1.5,-1.5l0,-24.16c0,-0.82 0.67,-1.5 1.5,-1.5l15.66,0c0.83,0 1.5,0.68 1.5,1.5l0,24.16c0,0.83 -0.67,1.5 -1.5,1.5zm-14.16,-3l12.66,0l0,-21.16l-12.66,0l0,21.16z" fill="#6e6e96" fill-opacity="0.33" fill-rule="nonzero" group-id="1,4,18" hidden="true" node-id="300" stroke-opacity="0.33" target-height="27.15999" target-width="18.657" target-x="76.873" target-y="129.945" visibility="hidden" id="svg_34"/>
     <path d="m81.37,99.24l15.66,0l0,24.31l-15.66,0l0,-24.31z" fill="#bddfff" fill-opacity="0.33" fill-rule="nonzero" group-id="1,4,18" hidden="true" node-id="302" stroke-opacity="0.33" target-height="24.31" target-width="15.656" target-x="78.373" target-y="101.244" visibility="hidden" id="svg_35"/>
     <path d="m97.03,125.05l-15.66,0c-0.83,0 -1.5,-0.67 -1.5,-1.5l0,-24.31c0,-0.82 0.67,-1.5 1.5,-1.5l15.66,0c0.83,0 1.5,0.68 1.5,1.5l0,24.31c0,0.83 -0.67,1.5 -1.5,1.5zm-14.16,-3l12.66,0l0,-21.31l-12.66,0l0,21.31z" fill="#6e6e96" fill-opacity="0.33" fill-rule="nonzero" group-id="1,4,18" hidden="true" node-id="304" stroke-opacity="0.33" target-height="27.31" target-width="18.657" target-x="76.873" target-y="99.744" visibility="hidden" id="svg_36"/>
     <path d="m103.44,129.44l15.66,0l0,24.16l-15.66,0l0,-24.16z" fill="#bddfff" fill-opacity="0.33" fill-rule="nonzero" group-id="1,4,18" hidden="true" node-id="306" stroke-opacity="0.33" target-height="24.15999" target-width="15.659" target-x="100.437" target-y="131.445" visibility="hidden" id="svg_37"/>
     <path d="m119.1,155.1l-15.66,0c-0.83,0 -1.5,-0.67 -1.5,-1.5l0,-24.16c0,-0.82 0.67,-1.5 1.5,-1.5l15.66,0c0.82,0 1.5,0.68 1.5,1.5l0,24.16c0,0.83 -0.68,1.5 -1.5,1.5zm-14.16,-3l12.66,0l0,-21.16l-12.66,0l0,21.16z" fill="#6e6e96" fill-opacity="0.33" fill-rule="nonzero" group-id="1,4,18" hidden="true" node-id="308" stroke-opacity="0.33" target-height="27.15999" target-width="18.659" target-x="98.937" target-y="129.945" visibility="hidden" id="svg_38"/>
     <path d="m103.44,68.67l15.66,0l0,24.68l-15.66,0l0,-24.68z" fill="#bddfff" fill-opacity="0.33" fill-rule="nonzero" group-id="1,4,18" hidden="true" node-id="310" stroke-opacity="0.33" target-height="24.677" target-width="15.659" target-x="100.437" target-y="70.671" visibility="hidden" id="svg_39"/>
     <path d="m119.1,94.85l-15.66,0c-0.83,0 -1.5,-0.67 -1.5,-1.5l0,-24.68c0,-0.83 0.67,-1.5 1.5,-1.5l15.66,0c0.82,0 1.5,0.67 1.5,1.5l0,24.68c0,0.83 -0.68,1.5 -1.5,1.5zm-14.16,-3l12.66,0l0,-21.68l-12.66,0l0,21.68z" fill="#6e6e96" fill-opacity="0.33" fill-rule="nonzero" group-id="1,4,18" hidden="true" node-id="312" stroke-opacity="0.33" target-height="27.677" target-width="18.659" target-x="98.937" target-y="69.171" visibility="hidden" id="svg_40"/>
     <path d="m103.44,99.24l15.66,0l0,24.31l-15.66,0l0,-24.31z" fill="#bddfff" fill-opacity="0.33" fill-rule="nonzero" group-id="1,4,18" hidden="true" node-id="314" stroke-opacity="0.33" target-height="24.31" target-width="15.659" target-x="100.437" target-y="101.244" visibility="hidden" id="svg_41"/>
     <path d="m119.1,125.05l-15.66,0c-0.83,0 -1.5,-0.67 -1.5,-1.5l0,-24.31c0,-0.82 0.67,-1.5 1.5,-1.5l15.66,0c0.82,0 1.5,0.68 1.5,1.5l0,24.31c0,0.83 -0.68,1.5 -1.5,1.5zm-14.16,-3l12.66,0l0,-21.31l-12.66,0l0,21.31z" fill="#6e6e96" fill-opacity="0.33" fill-rule="nonzero" group-id="1,4,18" hidden="true" node-id="316" stroke-opacity="0.33" target-height="27.31" target-width="18.659" target-x="98.937" target-y="99.744" visibility="hidden" id="svg_42"/>
     <path d="m81.37,68.67l15.66,0l0,24.68l-15.66,0l0,-24.68z" fill="#bddfff" fill-opacity="0.33" fill-rule="nonzero" group-id="1,4,18" hidden="true" node-id="318" stroke-opacity="0.33" target-height="24.677" target-width="15.656" target-x="78.373" target-y="70.671" visibility="hidden" id="svg_43"/>
     <path d="m97.03,94.85l-15.66,0c-0.83,0 -1.5,-0.67 -1.5,-1.5l0,-24.68c0,-0.83 0.67,-1.5 1.5,-1.5l15.66,0c0.83,0 1.5,0.67 1.5,1.5l0,24.68c0,0.83 -0.67,1.5 -1.5,1.5zm-14.16,-3l12.66,0l0,-21.68l-12.66,0l0,21.68z" fill="#6e6e96" fill-opacity="0.33" fill-rule="nonzero" group-id="1,4,18" hidden="true" node-id="320" stroke-opacity="0.33" target-height="27.677" target-width="18.657" target-x="76.873" target-y="69.171" visibility="hidden" id="svg_44"/>
     <path d="m46.48,50.67l153.23,0l0,7.07l-153.23,0l0,-7.07z" fill="#d5b697" fill-opacity="0.33" fill-rule="nonzero" group-id="1,4,18" hidden="true" node-id="322" stroke-opacity="0.33" target-height="7.074" target-width="153.226" target-x="43.483" target-y="52.671" visibility="hidden" id="svg_45"/>
     <path d="m199.71,59.24l-153.23,0c-0.83,0 -1.5,-0.67 -1.5,-1.5l0,-7.07c0,-0.83 0.67,-1.5 1.5,-1.5l153.23,0c0.83,0 1.5,0.67 1.5,1.5l0,7.07c0,0.83 -0.67,1.5 -1.5,1.5zm-151.73,-3l150.23,0l0,-4.07l-150.23,0l0,4.07z" fill="#6e6e96" fill-opacity="0.33" fill-rule="nonzero" group-id="1,4,18" hidden="true" node-id="324" stroke-opacity="0.33" target-height="10.074" target-width="156.226" target-x="41.983" target-y="51.171" visibility="hidden" id="svg_46"/>
     <path d="m147.56,159.9l15.66,0l0,24.16l-15.66,0l0,-24.16z" fill="#bddfff" fill-opacity="0.33" fill-rule="nonzero" group-id="1,4,18" hidden="true" node-id="326" stroke-opacity="0.33" target-height="24.15999" target-width="15.658" target-x="144.564" target-y="161.895" visibility="hidden" id="svg_47"/>
     <path d="m163.22,185.56l-15.66,0c-0.82,0 -1.5,-0.68 -1.5,-1.5l0,-24.16c0,-0.83 0.68,-1.5 1.5,-1.5l15.66,0c0.83,0 1.5,0.67 1.5,1.5l0,24.16c0,0.82 -0.67,1.5 -1.5,1.5zm-14.16,-3l12.66,0l0,-21.16l-12.66,0l0,21.16z" fill="#6e6e96" fill-opacity="0.33" fill-rule="nonzero" group-id="1,4,18" hidden="true" node-id="328" stroke-opacity="0.33" target-height="27.15999" target-width="18.658" target-x="143.064" target-y="160.395" visibility="hidden" id="svg_48"/>
     <path d="m169.63,159.9l18.42,0l0,24.16l-18.42,0l0,-24.16z" fill="#bddfff" fill-opacity="0.33" fill-rule="nonzero" group-id="1,4,18" hidden="true" node-id="330" stroke-opacity="0.33" target-height="24.15999" target-width="18.425" target-x="166.629" target-y="161.895" visibility="hidden" id="svg_49"/>
     <path d="m188.05,185.56l-18.42,0c-0.83,0 -1.5,-0.68 -1.5,-1.5l0,-24.16c0,-0.83 0.67,-1.5 1.5,-1.5l18.42,0c0.83,0 1.5,0.67 1.5,1.5l0,24.16c0,0.82 -0.67,1.5 -1.5,1.5zm-16.92,-3l15.42,0l0,-21.16l-15.42,0l0,21.16z" fill="#6e6e96" fill-opacity="0.33" fill-rule="nonzero" group-id="1,4,18" hidden="true" node-id="332" stroke-opacity="0.33" target-height="27.15999" target-width="21.425" target-x="165.129" target-y="160.395" visibility="hidden" id="svg_50"/>
     <path d="m58.02,159.9l16.95,0l0,24.16l-16.95,0l0,-24.16z" fill="#bddfff" fill-opacity="0.33" fill-rule="nonzero" group-id="1,4,18" hidden="true" node-id="334" stroke-opacity="0.33" target-height="24.15999" target-width="16.942" target-x="55.025" target-y="161.895" visibility="hidden" id="svg_51"/>
     <path d="m74.97,185.56l-16.95,0c-0.82,0 -1.5,-0.68 -1.5,-1.5l0,-24.16c0,-0.83 0.68,-1.5 1.5,-1.5l16.95,0c0.83,0 1.5,0.67 1.5,1.5l0,24.16c0,0.82 -0.67,1.5 -1.5,1.5zm-15.45,-3l13.95,0l0,-21.16l-13.95,0l0,21.16z" fill="#6e6e96" fill-opacity="0.33" fill-rule="nonzero" group-id="1,4,18" hidden="true" node-id="336" stroke-opacity="0.33" target-height="27.15999" target-width="19.942" target-x="53.525" target-y="160.395" visibility="hidden" id="svg_52"/>
     <path d="m81.37,159.9l15.66,0l0,24.16l-15.66,0l0,-24.16z" fill="#bddfff" fill-opacity="0.33" fill-rule="nonzero" group-id="1,4,18" hidden="true" node-id="338" stroke-opacity="0.33" target-height="24.15999" target-width="15.656" target-x="78.373" target-y="161.895" visibility="hidden" id="svg_53"/>
     <path d="m97.03,185.56l-15.66,0c-0.83,0 -1.5,-0.68 -1.5,-1.5l0,-24.16c0,-0.83 0.67,-1.5 1.5,-1.5l15.66,0c0.83,0 1.5,0.67 1.5,1.5l0,24.16c0,0.82 -0.67,1.5 -1.5,1.5zm-14.16,-3l12.66,0l0,-21.16l-12.66,0l0,21.16z" fill="#6e6e96" fill-opacity="0.33" fill-rule="nonzero" group-id="1,4,18" hidden="true" node-id="340" stroke-opacity="0.33" target-height="27.15999" target-width="18.657" target-x="76.873" target-y="160.395" visibility="hidden" id="svg_54"/>
     <path d="m103.44,159.9l37.78,0l0,32.22l-37.78,0l0,-32.22z" fill="#e4bc96" fill-opacity="0.33" fill-rule="nonzero" group-id="1,4,18" hidden="true" node-id="342" stroke-opacity="0.33" target-height="32.22899" target-width="37.784" target-x="100.437" target-y="161.895" visibility="hidden" id="svg_55"/>
     <path d="m141.22,193.62l-37.78,0c-0.83,0 -1.5,-0.67 -1.5,-1.5l0,-32.22c0,-0.83 0.67,-1.5 1.5,-1.5l37.78,0c0.83,0 1.5,0.67 1.5,1.5l0,32.22c0,0.83 -0.67,1.5 -1.5,1.5zm-36.28,-3l34.78,0l0,-29.22l-34.78,0l0,29.22z" fill="#6e6e96" fill-opacity="0.33" fill-rule="nonzero" group-id="1,4,18" hidden="true" node-id="344" stroke-opacity="0.33" target-height="35.22899" target-width="40.784" target-x="98.937" target-y="160.395" visibility="hidden" id="svg_56"/>
     <path d="m122.11,193.62c-0.83,0 -1.5,-0.67 -1.5,-1.5l0,-32.22c0,-0.83 0.67,-1.5 1.5,-1.5c0.83,0 1.5,0.67 1.5,1.5l0,32.22c0,0.83 -0.67,1.5 -1.5,1.5z" fill="#6e6e96" fill-opacity="0.33" fill-rule="nonzero" group-id="1,4,18" hidden="true" node-id="346" stroke-opacity="0.33" target-height="35.23" target-width="3" target-x="117.613" target-y="160.395" visibility="hidden" id="svg_57"/>
    </g>
    <path d="m88.83,189.56l38,0l0,18l-38,0l0,-18z" fill="#d6f0ff" fill-rule="nonzero" group-id="1,4" hidden="true" node-id="349" target-height="18" target-width="38" target-x="85.833" target-y="191.557" visibility="hidden" id="svg_58"/>
    <path d="m104.62,19.6l-21.12,0c-1.38,0 -2.5,-1.12 -2.5,-2.5c0,-1.38 1.12,-2.5 2.5,-2.5l21.12,0c1.39,0 2.5,1.12 2.5,2.5c0,1.38 -1.11,2.5 -2.5,2.5z" fill="#ffffff" fill-rule="nonzero" group-id="1,4" hidden="true" node-id="351" target-height="5" target-width="26.125" target-x="78" target-y="16.598" visibility="hidden" id="svg_59"/>
    <path d="m118.47,30.52l-24.77,0c-1.38,0 -2.5,-1.11 -2.5,-2.5c0,-1.38 1.12,-2.5 2.5,-2.5l24.77,0c1.38,0 2.5,1.12 2.5,2.5c0,1.39 -1.12,2.5 -2.5,2.5z" fill="#ffffff" fill-rule="nonzero" group-id="1,4" hidden="true" node-id="353" target-height="5" target-width="29.767" target-x="88.198" target-y="27.525" visibility="hidden" id="svg_60"/>
   </g>
   <g node-id="645" id="svg_61">
    <path d="m159.5,19.59l67.12,0l0,9.56l-67.12,0l0,-9.56z" fill="#ebebf7" fill-rule="nonzero" group-id="1,5" hidden="true" node-id="357" target-height="9.561" target-width="67.12199" target-x="156.502" target-y="21.587" visibility="hidden" id="svg_62"/>
    <path d="m226.62,30.65l-67.12,0c-0.83,0 -1.5,-0.67 -1.5,-1.5l0,-9.56c0,-0.83 0.67,-1.5 1.5,-1.5l67.12,0c0.83,0 1.5,0.67 1.5,1.5l0,9.56c0,0.83 -0.67,1.5 -1.5,1.5zm-65.62,-3l64.12,0l0,-6.56l-64.12,0l0,6.56z" fill="#ccccde" fill-rule="nonzero" group-id="1,5" hidden="true" node-id="359" target-height="12.561" target-width="70.12199" target-x="155.002" target-y="20.087" visibility="hidden" id="svg_63"/>
    <path d="m140.1,28.98l105.59,0l0,169.36l-105.59,0l0,-169.36z" fill="#ffffff" fill-rule="nonzero" group-id="1,5" hidden="true" node-id="361" target-height="169.35501" target-width="105.58899" target-x="137.1" target-y="30.982" visibility="hidden" id="svg_64"/>
    <path d="m245.69,199.84l-105.59,0c-0.83,0 -1.5,-0.68 -1.5,-1.5l0,-169.36c0,-0.83 0.67,-1.5 1.5,-1.5l105.59,0c0.83,0 1.5,0.67 1.5,1.5l0,169.36c0,0.82 -0.67,1.5 -1.5,1.5zm-104.09,-3l102.59,0l0,-166.36l-102.59,0l0,166.36z" fill="#ccccde" fill-rule="nonzero" group-id="1,5" hidden="true" node-id="363" target-height="172.35501" target-width="108.58899" target-x="135.6" target-y="29.482" visibility="hidden" id="svg_65"/>
    <path d="m149.17,37.45l88.04,0l0,160.89l-88.04,0l0,-160.89z" fill="#cfe7ff" fill-rule="nonzero" group-id="1,5" hidden="true" node-id="365" target-height="160.893" target-width="88.03601" target-x="146.174" target-y="39.445" visibility="hidden" id="svg_66"/>
    <path d="m237.21,199.84l-88.04,0c-0.82,0 -1.5,-0.67 -1.5,-1.5l0,-160.89c0,-0.83 0.68,-1.5 1.5,-1.5l88.04,0c0.83,0 1.5,0.67 1.5,1.5l0,160.89c0,0.83 -0.67,1.5 -1.5,1.5zm-86.54,-3l85.04,0l0,-157.89l-85.04,0l0,157.89z" fill="#ccccde" fill-rule="nonzero" group-id="1,5" hidden="true" node-id="367" target-height="163.893" target-width="91.03601" target-x="144.674" target-y="37.945" visibility="hidden" id="svg_67"/>
    <g node-id="659" id="svg_68">
     <path d="m150.3,121.09l82.64,-82.64l-59.94,0.17l-22.7,23.37l0,59.1z" fill="#ffffff" fill-opacity="0.49" fill-rule="nonzero" group-id="1,5,19" hidden="true" node-id="371" stroke-opacity="0.49" target-height="82.63901" target-width="82.64101" target-x="147.297" target-y="40.452" visibility="hidden" id="svg_69"/>
    </g>
    <g node-id="660" id="svg_70">
     <path d="m236.48,60.66l-86.83,86.83l23.85,0.69l62.98,-62.98l0,-24.54z" fill="#ffffff" fill-opacity="0.27" fill-rule="nonzero" group-id="1,5,20" hidden="true" node-id="376" stroke-opacity="0.27" target-height="87.51199" target-width="86.825" target-x="146.653" target-y="62.664" visibility="hidden" id="svg_71"/>
    </g>
    <path d="m312.17,168.54l88.04,0l0,50.8l-88.04,0l0,-50.8z" fill="#cfe7ff" fill-rule="nonzero" group-id="1,5" hidden="true" node-id="379" target-height="50.793" target-width="88.03601" target-x="146.174" target-y="149.544" visibility="hidden" id="svg_72"/>
    <path d="m400.21,220.84l-88.04,0c-0.82,0 -1.5,-0.68 -1.5,-1.5l0,-50.8c0,-0.82 0.68,-1.5 1.5,-1.5l88.04,0c0.83,0 1.5,0.68 1.5,1.5l0,50.8c0,0.82 -0.67,1.5 -1.5,1.5zm-86.54,-3l85.04,0l0,-47.8l-85.04,0l0,47.8z" fill="#ccccde" fill-rule="nonzero" group-id="1,5" hidden="true" node-id="381" target-height="53.793" target-width="91.03601" target-x="144.674" target-y="148.044" visibility="hidden" id="svg_73"/>
    <path d="m335.29,181l-21.82,21.19l0,12.93l21.82,-21.18l0,-12.94z" fill="#ffffff" fill-opacity="0.1813" fill-rule="nonzero" group-id="1,5,21,26" hidden="true" node-id="387" stroke-opacity="0.1813" target-height="34.12199" target-width="21.81799" target-x="147.475" target-y="162.003" visibility="hidden" id="svg_74"/>
    <path d="m313.35,192.38l11.71,-11.38l-11.71,0" fill="#ffffff" fill-opacity="0.1813" fill-rule="nonzero" group-id="1,5,21,27" hidden="true" node-id="392" stroke-opacity="0.1813" target-height="11.373" target-width="11.713" target-x="147.349" target-y="162.003" visibility="hidden" id="svg_75"/>
    <path d="m366.76,181l-21.19,21.19l0,12.93l21.19,-21.18l0,-12.94z" fill="#ffffff" fill-opacity="0.1813" fill-rule="nonzero" group-id="1,5,22,28" hidden="true" node-id="400" stroke-opacity="0.1813" target-height="34.12199" target-width="21.185" target-x="179.573" target-y="162.003" visibility="hidden" id="svg_76"/>
    <path d="m346.29,192.38l11.38,-11.38l-11.38,0" fill="#ffffff" fill-opacity="0.1813" fill-rule="nonzero" group-id="1,5,22,29" hidden="true" node-id="405" stroke-opacity="0.1813" target-height="11.373" target-width="11.373" target-x="180.294" target-y="162.003" visibility="hidden" id="svg_77"/>
    <path d="m399.02,181l-23.54,21.19l0,12.93l23.54,-21.18l0,-12.94z" fill="#ffffff" fill-opacity="0.1813" fill-rule="nonzero" group-id="1,5,23,30" hidden="true" node-id="413" stroke-opacity="0.1813" target-height="34.12199" target-width="23.53801" target-x="209.48" target-y="162.003" visibility="hidden" id="svg_78"/>
    <path d="m376.28,192.38l12.64,-11.38l-12.64,0" fill="#ffffff" fill-opacity="0.1813" fill-rule="nonzero" group-id="1,5,23,31" hidden="true" node-id="418" stroke-opacity="0.1813" target-height="11.373" target-width="12.638" target-x="210.28" target-y="162.003" visibility="hidden" id="svg_79"/>
    <path d="m321.89,58.45l3,0l0,110.09l-3,0l0,-110.09z" fill="#ccccde" fill-rule="nonzero" group-id="1,5" hidden="true" node-id="422" target-height="110.09901" target-width="3" target-x="155.893" target-y="39.445" visibility="hidden" id="svg_80"/>
    <path d="m333.13,58.45l3,0l0,110.09l-3,0l0,-110.09z" fill="#ccccde" fill-rule="nonzero" group-id="1,5" hidden="true" node-id="424" target-height="110.09901" target-width="3" target-x="167.127" target-y="39.445" visibility="hidden" id="svg_81"/>
    <path d="m344.08,58.45l3,0l0,110.09l-3,0l0,-110.09z" fill="#ccccde" fill-rule="nonzero" group-id="1,5" hidden="true" node-id="426" target-height="110.09901" target-width="3" target-x="178.079" target-y="39.445" visibility="hidden" id="svg_82"/>
    <path d="m355.59,58.45l3,0l0,110.09l-3,0l0,-110.09z" fill="#ccccde" fill-rule="nonzero" group-id="1,5" hidden="true" node-id="428" target-height="110.09901" target-width="3" target-x="189.593" target-y="39.445" visibility="hidden" id="svg_83"/>
    <path d="m366.54,58.45l3,0l0,110.09l-3,0l0,-110.09z" fill="#ccccde" fill-rule="nonzero" group-id="1,5" hidden="true" node-id="430" target-height="110.09901" target-width="3" target-x="200.545" target-y="39.445" visibility="hidden" id="svg_84"/>
    <path d="m377.22,58.45l3,0l0,110.09l-3,0l0,-110.09z" fill="#ccccde" fill-rule="nonzero" group-id="1,5" hidden="true" node-id="432" target-height="110.09901" target-width="3" target-x="211.216" target-y="39.445" visibility="hidden" id="svg_85"/>
    <path d="m387.89,58.45l3,0l0,110.09l-3,0l0,-110.09z" fill="#ccccde" fill-rule="nonzero" group-id="1,5" hidden="true" node-id="434" target-height="110.09901" target-width="3" target-x="221.888" target-y="39.445" visibility="hidden" id="svg_86"/>
    <path d="m400.21,83.16l-88.04,0c-0.82,0 -1.5,-0.67 -1.5,-1.5c0,-0.83 0.68,-1.5 1.5,-1.5l88.04,0c0.83,0 1.5,0.67 1.5,1.5c0,0.83 -0.67,1.5 -1.5,1.5z" fill="#ccccde" fill-rule="nonzero" group-id="1,5" hidden="true" node-id="436" target-height="3" target-width="91.03601" target-x="144.674" target-y="61.16" visibility="hidden" id="svg_87"/>
    <path d="m400.21,105.62l-88.04,0c-0.82,0 -1.5,-0.67 -1.5,-1.5c0,-0.82 0.68,-1.5 1.5,-1.5l88.04,0c0.83,0 1.5,0.68 1.5,1.5c0,0.83 -0.67,1.5 -1.5,1.5z" fill="#ccccde" fill-rule="nonzero" group-id="1,5" hidden="true" node-id="438" target-height="3" target-width="91.03601" target-x="144.674" target-y="83.625" visibility="hidden" id="svg_88"/>
    <path d="m400.21,126.97l-88.04,0c-0.82,0 -1.5,-0.67 -1.5,-1.5c0,-0.83 0.68,-1.5 1.5,-1.5l88.04,0c0.83,0 1.5,0.67 1.5,1.5c0,0.83 -0.67,1.5 -1.5,1.5z" fill="#ccccde" fill-rule="nonzero" group-id="1,5" hidden="true" node-id="440" target-height="3" target-width="91.03601" target-x="144.674" target-y="104.969" visibility="hidden" id="svg_89"/>
    <path d="m312.17,145.31l88.04,0l0,3l-88.04,0l0,-3z" fill="#ccccde" fill-rule="nonzero" group-id="1,5" hidden="true" node-id="442" target-height="3.00001" target-width="88.03601" target-x="146.174" target-y="126.311" visibility="hidden" id="svg_90"/>
    <path d="m336.59,176.72l8.98,0l0,42.62l-8.98,0l0,-42.62z" fill="#f0f0ff" fill-rule="nonzero" group-id="1,5" hidden="true" node-id="444" target-height="42.619" target-width="8.981" target-x="170.592" target-y="157.718" visibility="hidden" id="svg_91"/>
    <path d="m345.57,220.84l-8.98,0c-0.83,0 -1.5,-0.68 -1.5,-1.5l0,-42.62c0,-0.83 0.67,-1.5 1.5,-1.5l8.98,0c0.83,0 1.5,0.67 1.5,1.5l0,42.62c0,0.82 -0.67,1.5 -1.5,1.5zm-7.48,-3l5.98,0l0,-39.62l-5.98,0l0,39.62z" fill="#ccccde" fill-rule="nonzero" group-id="1,5" hidden="true" node-id="446" target-height="45.619" target-width="11.981" target-x="169.092" target-y="156.218" visibility="hidden" id="svg_92"/>
    <path d="m366.5,174.77l8.43,0l0,44.57l-8.43,0l0,-44.57z" fill="#f0f0ff" fill-rule="nonzero" group-id="1,5" hidden="true" node-id="448" target-height="44.563" target-width="8.425" target-x="200.5" target-y="155.773" visibility="hidden" id="svg_93"/>
    <path d="m374.93,220.84l-8.43,0c-0.83,0 -1.5,-0.68 -1.5,-1.5l0,-44.57c0,-0.82 0.67,-1.5 1.5,-1.5l8.43,0c0.82,0 1.5,0.68 1.5,1.5l0,44.57c0,0.82 -0.68,1.5 -1.5,1.5zm-6.93,-3l5.43,0l0,-41.57l-5.43,0l0,41.57z" fill="#ccccde" fill-rule="nonzero" group-id="1,5" hidden="true" node-id="450" target-height="47.563" target-width="11.425" target-x="199" target-y="154.274" visibility="hidden" id="svg_94"/>
    <path d="m312.17,168.54l88.04,0l0,12.46l-88.04,0l0,-12.46z" fill="#f0f0ff" fill-rule="nonzero" group-id="1,5" hidden="true" node-id="452" target-height="12.459" target-width="88.03601" target-x="146.174" target-y="149.544" visibility="hidden" id="svg_95"/>
    <path d="m400.21,182.5l-88.04,0c-0.82,0 -1.5,-0.67 -1.5,-1.5l0,-12.46c0,-0.82 0.68,-1.5 1.5,-1.5l88.04,0c0.83,0 1.5,0.68 1.5,1.5l0,12.46c0,0.83 -0.67,1.5 -1.5,1.5zm-86.54,-3l85.04,0l0,-9.46l-85.04,0l0,9.46z" fill="#ccccde" fill-rule="nonzero" group-id="1,5" hidden="true" node-id="454" target-height="15.459" target-width="91.03601" target-x="144.674" target-y="148.044" visibility="hidden" id="svg_96"/>
    <path d="m341.32,33.08l29.49,0l0,7.51l-29.49,0l0,-7.51z" fill="#ebebf7" fill-rule="nonzero" group-id="1,5" hidden="true" node-id="456" target-height="7.509" target-width="29.48599" target-x="175.319" target-y="14.078" visibility="hidden" id="svg_97"/>
    <path d="m370.81,42.09l-29.49,0c-0.83,0 -1.5,-0.67 -1.5,-1.5l0,-7.51c0,-0.83 0.67,-1.5 1.5,-1.5l29.49,0c0.82,0 1.5,0.67 1.5,1.5l0,7.51c0,0.83 -0.68,1.5 -1.5,1.5zm-27.99,-3l26.49,0l0,-4.51l-26.49,0l0,4.51z" fill="#ccccde" fill-rule="nonzero" group-id="1,5" hidden="true" node-id="458" target-height="10.509" target-width="32.48599" target-x="173.819" target-y="12.578" visibility="hidden" id="svg_98"/>
    <path d="m356.06,34.58c-0.82,0 -1.5,-0.67 -1.5,-1.5l0,-12.25c0,-0.83 0.68,-1.5 1.5,-1.5c0.83,0 1.5,0.67 1.5,1.5l0,12.25c0,0.83 -0.67,1.5 -1.5,1.5z" fill="#ccccde" fill-rule="nonzero" group-id="1,5" hidden="true" node-id="460" target-height="15.252" target-width="3" target-x="188.563" target-y="0.326" visibility="hidden" id="svg_99"/>
    <path d="m299.37,215.05l114.73,0l0,8.71l-114.73,0l0,-8.71z" fill="#f0f0ff" fill-rule="nonzero" group-id="1,5" hidden="true" node-id="462" target-height="8.70601" target-width="114.72701" target-x="133.373" target-y="196.051" visibility="hidden" id="svg_100"/>
    <path d="m414.1,225.26l-114.73,0c-0.83,0 -1.5,-0.67 -1.5,-1.5l0,-8.71c0,-0.83 0.67,-1.5 1.5,-1.5l114.73,0c0.83,0 1.5,0.67 1.5,1.5l0,8.71c0,0.83 -0.67,1.5 -1.5,1.5zm-113.23,-3l111.73,0l0,-5.71l-111.73,0l0,5.71z" fill="#ccccde" fill-rule="nonzero" group-id="1,5" hidden="true" node-id="464" target-height="11.70601" target-width="117.72701" target-x="131.873" target-y="194.551" visibility="hidden" id="svg_101"/>
   </g>
   <g node-id="646" id="svg_102">
    <path d="m264.44,223.76l-89.11,0l0,-76.17l44.56,-28.52l44.55,28.52l0,76.17z" fill="#ffffff" fill-rule="nonzero" group-id="1,6" hidden="true" node-id="468" target-height="104.68501" target-width="89.111" target-x="9.331" target-y="100.072" visibility="hidden" id="svg_103"/>
    <path d="m265.94,225.26l-92.11,0l0,-78.49l46.06,-29.48l46.05,29.48l0,78.49zm-89.11,-3l86.11,0l0,-73.85l-43.05,-27.56l-43.06,27.56l0,73.85z" fill="#ccccde" fill-rule="nonzero" group-id="1,6" hidden="true" node-id="470" target-height="107.965" target-width="92.111" target-x="7.831" target-y="98.292" visibility="hidden" id="svg_104"/>
    <path d="m219.89,114.23l-52.39,31.85l0,5.24l7.83,0l44.56,-27.51l44.43,27.87l6.87,0.11l0,-5.71l-51.3,-31.85z" fill="#e0e6fc" fill-rule="nonzero" group-id="1,6" hidden="true" node-id="472" target-height="37.556" target-width="103.693" target-x="1.5" target-y="95.235" visibility="hidden" id="svg_105"/>
    <path d="m271.19,153.29c0,0 -0.01,0 -0.02,0l-6.87,-0.11c-0.28,0 -0.54,-0.08 -0.77,-0.22l-43.65,-27.38l-43.76,27.02c-0.24,0.14 -0.51,0.22 -0.79,0.22l-7.83,0c-0.83,0 -1.5,-0.67 -1.5,-1.5l0,-5.24c0,-0.52 0.27,-1.01 0.72,-1.28l52.39,-31.85c0.48,-0.29 1.09,-0.29 1.57,0.01l51.3,31.85c0.44,0.27 0.71,0.75 0.71,1.27l0,5.71c0,0.4 -0.16,0.79 -0.44,1.07c-0.29,0.28 -0.66,0.43 -1.06,0.43zm-6.43,-3.1l4.93,0.08l0,-3.35l-49.81,-30.92l-50.88,30.93l0,2.89l5.9,0l44.2,-27.28c0.49,-0.3 1.1,-0.3 1.58,0.01l44.08,27.64z" fill="#ccccde" fill-rule="nonzero" group-id="1,6" hidden="true" node-id="474" target-height="40.55512" target-width="106.693" target-x="0" target-y="93.73589" visibility="hidden" id="svg_106"/>
    <path d="m183.74,185.61l30.25,0l0,19.96l-30.25,0l0,-19.96z" fill="#d4eaff" fill-rule="nonzero" group-id="1,6" hidden="true" node-id="476" target-height="19.961" target-width="30.25" target-x="17.744" target-y="166.613" visibility="hidden" id="svg_107"/>
    <path d="m213.99,207.07l-30.25,0c-0.83,0 -1.5,-0.67 -1.5,-1.5l0,-19.96c0,-0.83 0.67,-1.5 1.5,-1.5l30.25,0c0.83,0 1.5,0.67 1.5,1.5l0,19.96c0,0.83 -0.67,1.5 -1.5,1.5zm-28.75,-3l27.25,0l0,-16.96l-27.25,0l0,16.96z" fill="#ccccde" fill-rule="nonzero" group-id="1,6" hidden="true" node-id="478" target-height="22.961" target-width="33.25" target-x="16.244" target-y="165.113" visibility="hidden" id="svg_108"/>
    <path d="m175.33,211.63l89.11,0l0,12.13l-89.11,0l0,-12.13z" fill="#fcebe3" fill-rule="nonzero" group-id="1,6" hidden="true" node-id="480" target-height="12.131" target-width="89.11" target-x="9.331" target-y="192.626" visibility="hidden" id="svg_109"/>
    <path d="m264.44,225.26l-89.11,0c-0.83,0 -1.5,-0.67 -1.5,-1.5l0,-12.13c0,-0.83 0.67,-1.5 1.5,-1.5l89.11,0c0.83,0 1.5,0.67 1.5,1.5l0,12.13c0,0.83 -0.67,1.5 -1.5,1.5zm-87.61,-3l86.11,0l0,-9.13l-86.11,0l0,9.13z" fill="#ccccde" fill-rule="nonzero" group-id="1,6" hidden="true" node-id="482" target-height="15.131" target-width="92.11" target-x="7.831" target-y="191.126" visibility="hidden" id="svg_110"/>
    <path d="m215.26,223.76c0,-0.02 0,-0.05 0,-0.07c0,-3.76 -2.63,-6.8 -5.86,-6.8c-1.5,0 -2.87,0.66 -3.9,1.73c-0.81,-4.47 -4.22,-7.82 -8.31,-7.82c-1.86,0 -3.58,0.7 -4.98,1.88c-1.76,-2.8 -4.6,-4.64 -7.82,-4.64c-4.42,0 -8.14,3.44 -9.3,8.14c-0.43,-0.11 -0.88,-0.18 -1.34,-0.18c-3.45,0 -6.25,3.24 -6.25,7.25c0,0.17 0.01,0.34 0.02,0.51l47.74,0l0,0z" fill="#cce8d6" fill-rule="nonzero" group-id="1,6" hidden="true" node-id="484" target-height="15.713" target-width="47.761" target-x="1.5" target-y="189.044" visibility="hidden" id="svg_111"/>
    <path d="m215.26,225.26l-47.74,0c-0.8,0 -1.46,-0.63 -1.5,-1.43c-0.01,-0.26 -0.02,-0.42 -0.02,-0.58c0,-4.93 3.63,-8.93 8.03,-8.74c1.68,-4.75 5.78,-7.97 10.36,-7.97c3.11,0 6.07,1.49 8.17,4.06c1.42,-0.86 2.99,-1.3 4.63,-1.3c4.02,0 7.6,2.77 9.16,6.83c0.95,-0.49 1.99,-0.74 3.05,-0.74c4.06,0 7.36,3.72 7.36,8.3c0,0.04 0,0.12 -0.01,0.16c0,0.83 -0.66,1.41 -1.49,1.41zm-46.19,-3l44.54,0c-0.5,-2.21 -2.2,-3.87 -4.21,-3.87c-1.03,0 -2.03,0.45 -2.82,1.27c-0.4,0.4 -0.98,0.55 -1.52,0.39c-0.54,-0.16 -0.94,-0.61 -1.04,-1.17c-0.69,-3.81 -3.56,-6.58 -6.83,-6.58c-1.44,0 -2.83,0.53 -4.01,1.53c-0.34,0.28 -0.77,0.4 -1.2,0.33c-0.43,-0.06 -0.81,-0.31 -1.04,-0.68c-1.57,-2.5 -3.96,-3.94 -6.55,-3.94c-3.6,0 -6.83,2.88 -7.84,6.99c-0.1,0.39 -0.34,0.73 -0.68,0.93c-0.35,0.21 -0.76,0.27 -1.15,0.17c-0.34,-0.09 -0.66,-0.13 -0.97,-0.13c-2.34,0 -4.29,2.06 -4.68,4.76z" fill="#ccccde" fill-rule="nonzero" group-id="1,6" hidden="true" node-id="486" target-height="18.713" target-width="50.76" target-x="0" target-y="187.544" visibility="hidden" id="svg_112"/>
    <path d="m227.47,185.61l23.24,0l0,38.15l-23.24,0l0,-38.15z" fill="#ffdede" fill-rule="nonzero" group-id="1,6" hidden="true" node-id="488" target-height="38.14499" target-width="23.24" target-x="61.471" target-y="166.613" visibility="hidden" id="svg_113"/>
    <path d="m250.71,225.26l-23.24,0c-0.83,0 -1.5,-0.67 -1.5,-1.5l0,-38.15c0,-0.83 0.67,-1.5 1.5,-1.5l23.24,0c0.83,0 1.5,0.67 1.5,1.5l0,38.15c0,0.83 -0.67,1.5 -1.5,1.5zm-21.74,-3l20.24,0l0,-35.15l-20.24,0l0,35.15z" fill="#ccccde" fill-rule="nonzero" group-id="1,6" hidden="true" node-id="490" target-height="41.14499" target-width="26.24" target-x="59.971" target-y="165.113" visibility="hidden" id="svg_114"/>
    <path d="m264.44,180.01l-89.11,0c-0.83,0 -1.5,-0.67 -1.5,-1.5c0,-0.83 0.67,-1.5 1.5,-1.5l89.11,0c0.83,0 1.5,0.67 1.5,1.5c0,0.83 -0.67,1.5 -1.5,1.5z" fill="#ccccde" fill-rule="nonzero" group-id="1,6" hidden="true" node-id="492" target-height="3" target-width="92.11" target-x="7.831" target-y="158.007" visibility="hidden" id="svg_115"/>
    <path d="m183.74,152.69l16.28,0l0,18.53l-16.28,0l0,-18.53z" fill="#d4eaff" fill-rule="nonzero" group-id="1,6" hidden="true" node-id="494" target-height="18.535" target-width="16.275" target-x="17.744" target-y="133.689" visibility="hidden" id="svg_116"/>
    <path d="m200.02,172.72l-16.28,0c-0.83,0 -1.5,-0.67 -1.5,-1.5l0,-18.53c0,-0.83 0.67,-1.5 1.5,-1.5l16.28,0c0.83,0 1.5,0.67 1.5,1.5l0,18.53c0,0.83 -0.67,1.5 -1.5,1.5zm-14.78,-3l13.28,0l0,-15.53l-13.28,0l0,15.53z" fill="#ccccde" fill-rule="nonzero" group-id="1,6" hidden="true" node-id="496" target-height="21.535" target-width="19.276" target-x="16.244" target-y="132.19" visibility="hidden" id="svg_117"/>
    <path d="m200.02,163.46l-16.28,0c-0.83,0 -1.5,-0.68 -1.5,-1.5c0,-0.83 0.67,-1.5 1.5,-1.5l16.28,0c0.83,0 1.5,0.67 1.5,1.5c0,0.82 -0.67,1.5 -1.5,1.5z" fill="#ccccde" fill-rule="nonzero" group-id="1,6" hidden="true" node-id="498" target-height="3" target-width="19.276" target-x="16.244" target-y="141.457" visibility="hidden" id="svg_118"/>
    <path d="m239.42,152.69l16.28,0l0,18.53l-16.28,0l0,-18.53z" fill="#d4eaff" fill-rule="nonzero" group-id="1,6" hidden="true" node-id="500" target-height="18.535" target-width="16.277" target-x="73.422" target-y="133.689" visibility="hidden" id="svg_119"/>
    <path d="m255.7,172.72l-16.28,0c-0.83,0 -1.5,-0.67 -1.5,-1.5l0,-18.53c0,-0.83 0.67,-1.5 1.5,-1.5l16.28,0c0.83,0 1.5,0.67 1.5,1.5l0,18.53c0,0.83 -0.67,1.5 -1.5,1.5zm-14.78,-3l13.28,0l0,-15.53l-13.28,0l0,15.53z" fill="#ccccde" fill-rule="nonzero" group-id="1,6" hidden="true" node-id="502" target-height="21.535" target-width="19.277" target-x="71.922" target-y="132.19" visibility="hidden" id="svg_120"/>
    <path d="m255.7,163.46l-16.28,0c-0.83,0 -1.5,-0.68 -1.5,-1.5c0,-0.83 0.67,-1.5 1.5,-1.5l16.28,0c0.83,0 1.5,0.67 1.5,1.5c0,0.82 -0.67,1.5 -1.5,1.5z" fill="#ccccde" fill-rule="nonzero" group-id="1,6" hidden="true" node-id="504" target-height="3" target-width="19.277" target-x="71.922" target-y="141.457" visibility="hidden" id="svg_121"/>
    <path d="m211.66,152.69l16.28,0l0,18.53l-16.28,0l0,-18.53z" fill="#d4eaff" fill-rule="nonzero" group-id="1,6" hidden="true" node-id="506" target-height="18.535" target-width="16.275" target-x="45.664" target-y="133.689" visibility="hidden" id="svg_122"/>
    <path d="m227.94,172.72l-16.28,0c-0.82,0 -1.5,-0.67 -1.5,-1.5l0,-18.53c0,-0.83 0.68,-1.5 1.5,-1.5l16.28,0c0.83,0 1.5,0.67 1.5,1.5l0,18.53c0,0.83 -0.67,1.5 -1.5,1.5zm-14.78,-3l13.28,0l0,-15.53l-13.28,0l0,15.53z" fill="#ccccde" fill-rule="nonzero" group-id="1,6" hidden="true" node-id="508" target-height="21.535" target-width="19.276" target-x="44.164" target-y="132.19" visibility="hidden" id="svg_123"/>
    <path d="m227.94,163.46l-16.28,0c-0.82,0 -1.5,-0.68 -1.5,-1.5c0,-0.83 0.68,-1.5 1.5,-1.5l16.28,0c0.83,0 1.5,0.67 1.5,1.5c0,0.82 -0.67,1.5 -1.5,1.5z" fill="#ccccde" fill-rule="nonzero" group-id="1,6" hidden="true" node-id="510" target-height="3" target-width="19.276" target-x="44.164" target-y="141.457" visibility="hidden" id="svg_124"/>
    <path d="m198.91,207.07c-0.83,0 -1.5,-0.67 -1.5,-1.5l0,-19.96c0,-0.83 0.67,-1.5 1.5,-1.5c0.82,0 1.5,0.67 1.5,1.5l0,19.96c0,0.83 -0.68,1.5 -1.5,1.5z" fill="#ccccde" fill-rule="nonzero" group-id="1,6" hidden="true" node-id="512" target-height="22.961" target-width="3" target-x="31.406" target-y="165.113" visibility="hidden" id="svg_125"/>
    <path d="m224.33,219.4l29.53,0l0,4.36l-29.53,0l0,-4.36z" fill="#f0f0ff" fill-rule="nonzero" group-id="1,6" hidden="true" node-id="514" target-height="4.356" target-width="29.532" target-x="58.325" target-y="200.4" visibility="hidden" id="svg_126"/>
    <path d="m253.86,225.26l-29.53,0c-0.83,0 -1.5,-0.67 -1.5,-1.5l0,-4.36c0,-0.83 0.67,-1.5 1.5,-1.5l29.53,0c0.83,0 1.5,0.67 1.5,1.5l0,4.36c0,0.83 -0.67,1.5 -1.5,1.5zm-28.03,-3l26.53,0l0,-1.36l-26.53,0l0,1.36z" fill="#ccccde" fill-rule="nonzero" group-id="1,6" hidden="true" node-id="516" target-height="7.35701" target-width="32.532" target-x="56.825" target-y="198.9" visibility="hidden" id="svg_127"/>
    <path d="m277.88,223.76c0,-0.02 0,-0.03 0,-0.05c0,-2.51 -1.76,-4.55 -3.93,-4.55c-1,0 -1.91,0.44 -2.61,1.16c-0.53,-2.99 -2.81,-5.23 -5.55,-5.23c-1.24,0 -2.4,0.47 -3.33,1.26c-1.18,-1.88 -3.08,-3.1 -5.23,-3.1c-2.95,0 -5.44,2.3 -6.22,5.43c-0.29,-0.07 -0.59,-0.11 -0.9,-0.11c-2.31,0 -4.17,2.17 -4.17,4.84c0,0.12 0,0.23 0.01,0.35l31.93,0l0,0z" fill="#cce8d6" fill-rule="nonzero" group-id="1,6" hidden="true" node-id="518" target-height="10.51201" target-width="31.943" target-x="79.935" target-y="194.245" visibility="hidden" id="svg_128"/>
    <path d="m277.88,225.26l0,0l-31.93,0c-0.78,0 -1.43,-0.6 -1.49,-1.38c-0.02,-0.15 -0.03,-0.31 -0.03,-0.47c0,-3.44 2.47,-6.25 5.53,-6.34c1.26,-3.19 4.11,-5.32 7.27,-5.32c2.1,0 4.1,0.94 5.57,2.57c0.93,-0.48 1.95,-0.73 2.99,-0.73c2.74,0 5.19,1.76 6.39,4.4c0.57,-0.21 1.16,-0.33 1.77,-0.33c2.99,0 5.43,2.72 5.43,6.05c0,0.04 0,0.08 -0.01,0.13c-0.02,0.37 -0.17,0.72 -0.43,0.98c-0.28,0.28 -0.67,0.44 -1.06,0.44zm-30.28,-3l28.48,0c-0.41,-0.95 -1.21,-1.6 -2.13,-1.6c-0.7,0 -1.22,0.38 -1.53,0.7c-0.39,0.4 -0.97,0.55 -1.51,0.39c-0.54,-0.16 -0.94,-0.61 -1.04,-1.16c-0.42,-2.32 -2.14,-4 -4.08,-4c-0.84,0 -1.66,0.31 -2.36,0.91c-0.34,0.27 -0.77,0.4 -1.2,0.33c-0.43,-0.07 -0.81,-0.32 -1.04,-0.69c-0.96,-1.52 -2.4,-2.39 -3.96,-2.39c-2.18,0 -4.14,1.76 -4.76,4.29c-0.1,0.39 -0.35,0.73 -0.69,0.93c-0.34,0.21 -0.75,0.27 -1.14,0.17c-1.36,-0.35 -2.61,0.65 -3.04,2.12z" fill="#ccccde" fill-rule="nonzero" group-id="1,6" hidden="true" node-id="520" target-height="13.511" target-width="34.944" target-x="78.434" target-y="192.746" visibility="hidden" id="svg_129"/>
    <path d="m231.34,206.38c-0.82,0 -1.5,-0.68 -1.5,-1.5l0,-4.85c0,-0.82 0.68,-1.5 1.5,-1.5c0.83,0 1.5,0.68 1.5,1.5l0,4.85c0,0.82 -0.67,1.5 -1.5,1.5z" fill="#ccccde" fill-rule="nonzero" group-id="1,6" hidden="true" node-id="522" target-height="7.84" target-width="3" target-x="63.845" target-y="179.535" visibility="hidden" id="svg_130"/>
   </g>
  </g>
  <g node-id="642" id="svg_131">
   <path d="m27.97,8.61l-17,85l227,0l-15,-85l-195,0z" fill="#acdff5" fill-rule="nonzero" group-id="2" node-id="527" target-height="85" target-width="227.001" target-x="10.971" target-y="151.607" id="svg_132"/>
   <g node-id="647" id="svg_133">
    <path d="m120.49,93.61c0,0 8.87,-26.99 33.5,-26.99c24.63,0 64.04,-11.24 70.77,-47.87l-1.79,-10.14l-24.48,0c0,0 2.76,22.27 -17,29.51c-19.76,7.25 -73.44,21.97 -73.44,55.49l12.44,0l0,0z" fill="#fff2b5" fill-opacity="0.31" fill-rule="nonzero" group-id="2,7" node-id="531" stroke-opacity="0.31" target-height="85" target-width="116.711" target-x="108.05" target-y="151.607" id="svg_134"/>
   </g>
   <path d="m112.66,93.61c0,0 4,-31.99 48,-36.65c44,-4.67 52,-26.67 52,-26.67c0,0 4.31,-15.68 10.31,-21.68l-195,0l-17,85l101.69,0l0,0z" fill="#fff2b5" fill-rule="nonzero" group-id="2" node-id="534" target-height="85" target-width="212" target-x="10.97" target-y="151.607" id="svg_135"/>
   <path d="m160.66,56.96c44,-4.67 52,-26.67 52,-26.67c0,0 4.31,-15.68 10.31,-21.68l-5.48,0c0,0 -9.5,8.01 -14,21.68c-4.5,13.67 -39.75,22.58 -64.5,27.33c-24.75,4.75 -30.94,35.99 -30.94,35.99l4.61,0c0,0 4,-31.99 48,-36.65z" fill="#ffe6b5" fill-rule="nonzero" group-id="2" node-id="536" target-height="85" target-width="114.921" target-x="108.049" target-y="151.607" id="svg_136"/>
   <path d="m40.66,93.61c0,0 10.59,-18.93 30,-25.32c19.4,-6.39 74.19,-19.52 86.04,-14.48l16.48,-4.59c0,0 -12.19,-5.6 -16.52,-5.6c0,0 32.33,-14.69 38.33,-35.01l-6.32,1.53c0,0 -24.48,37.9 -90.08,43.69c0,0 -19.07,3.84 -34.83,10.65c0,0 -2.58,-10 9.23,-15.52c11.81,-5.53 23.83,-10.99 24.67,-25.67c0,0 12.33,-6.03 16,-14.68l-5.67,0c0,0 -18.54,16.68 -41.94,19.01c0,0 -8.92,0.76 -16.32,19.71c0,0 -9.41,13.33 -33.74,20.15l-1.03,6.2c0,0 34.19,-10.24 43.7,-31.72c0,0 4.18,-12.54 32.92,-16.61c0,0 -2.68,12.22 -20.13,18.21c-17.46,6 -15.04,21.15 -13.79,22.4c1.25,1.25 -18.67,15.3 -21.67,27.65l4.67,0z" fill="#ffe6b5" fill-rule="nonzero" group-id="2" node-id="538" target-height="85" target-width="180.032" target-x="14.957" target-y="151.607" id="svg_137"/>
   <path d="m16.14,67.78c0,0 19.18,-6.16 27.85,-14.82c8.67,-8.67 10.1,-23.86 20.67,-25.34c33.33,-4.66 43.33,-19.01 43.33,-19.01l-80.02,0l-11.83,59.17z" fill="#bde39f" fill-rule="nonzero" group-id="2" node-id="540" target-height="59.17801" target-width="91.854" target-x="16.136" target-y="151.607" id="svg_138"/>
   <path d="m77.72,20.29c-16.11,0.46 -29,15.67 -35,26.33c-6,10.67 -21.67,12.67 -21.67,12.67l-2.6,8.19c3.92,-1.35 19.4,-6.98 26.94,-14.52c8.66,-8.67 10.1,-23.86 20.66,-25.34c15.11,-2.11 25.41,-6.21 32.17,-10.07l7.72,-5.38c2.44,-2.12 3.45,-3.56 3.45,-3.56l-11.67,0c0,0 -3.89,11.22 -20,11.68z" fill="#b2d696" fill-rule="nonzero" group-id="2" node-id="542" target-height="58.87001" target-width="90.935" target-x="18.453" target-y="151.607" id="svg_139"/>
   <path d="m37.45,93.96l-2.92,-0.7c0.32,-1.35 8.56,-33.07 65.25,-41.12c36.31,-5.16 78.53,-19.45 88.15,-44.08l2.79,1.09c-10.09,25.84 -53.37,40.68 -90.52,45.96c-54.69,7.77 -62.68,38.54 -62.75,38.85z" fill="#dec99e" fill-rule="nonzero" group-id="2" node-id="544" target-height="85.895" target-width="156.189" target-x="34.532" target-y="151.062" id="svg_140"/>
   <path d="m172.19,56.7c-0.32,0 -0.65,-0.1 -0.92,-0.32c-18.96,-14.76 -50.78,-5.08 -51.1,-4.98c-0.79,0.25 -1.63,-0.2 -1.88,-0.99c-0.25,-0.79 0.19,-1.63 0.99,-1.88c0.34,-0.1 8.46,-2.6 19.16,-3.23c14.29,-0.83 26.29,2.19 34.67,8.72c0.66,0.51 0.77,1.45 0.27,2.1c-0.3,0.38 -0.74,0.58 -1.19,0.58z" fill="#dec99e" fill-rule="nonzero" group-id="2" node-id="546" target-height="11.52502" target-width="55.45026" target-x="118.22948" target-y="188.17598" id="svg_141"/>
   <path d="m57.7,69.46c-0.59,0 -1.16,-0.36 -1.39,-0.95c-1.84,-4.65 -1.59,-9.55 0.74,-14.15c3.31,-6.59 10.44,-11.76 19.55,-14.19c5.71,-1.52 9.85,-5.36 12.31,-11.42c1.89,-4.65 2.02,-8.92 2.03,-8.96c0.02,-0.83 0.68,-1.52 1.53,-1.46c0.83,0.02 1.48,0.71 1.46,1.53c0,0.19 -0.65,18.97 -16.55,23.21c-8.29,2.21 -14.72,6.82 -17.66,12.64c-1.92,3.82 -2.14,7.87 -0.62,11.7c0.3,0.77 -0.08,1.64 -0.85,1.95c-0.18,0.07 -0.36,0.1 -0.55,0.1z" fill="#dec99e" fill-rule="nonzero" group-id="2" node-id="548" target-height="51.135" target-width="38.81825" target-x="55.11575" target-y="161.328" id="svg_142"/>
   <path d="m44.45,28.12l5.27,-7.54l6.31,7.54l-11.58,0z" fill="#f0f0ff" fill-rule="nonzero" group-id="2,8" node-id="552" target-height="7.54601" target-width="11.582" target-x="44.449" target-y="163.579" id="svg_143"/>
   <path d="m56.05,29.62c0,0 -0.01,0 -0.02,0l-11.58,0c-0.56,0 -1.07,-0.31 -1.33,-0.8c-0.26,-0.5 -0.22,-1.1 0.1,-1.56l5.27,-7.54c0.27,-0.38 0.7,-0.62 1.17,-0.64c0.47,-0.02 0.91,0.18 1.21,0.54l6.18,7.39c0.31,0.27 0.5,0.67 0.5,1.11c0,0.83 -0.67,1.5 -1.5,1.5zm-8.72,-3l5.49,0l-2.99,-3.58l-2.5,3.58z" fill="#6e6e96" fill-rule="nonzero" group-id="2,8" node-id="554" target-height="10.546" target-width="14.59963" target-x="42.95237" target-y="162.079" id="svg_144"/>
   <path d="m35.28,28.12l6.63,-9.48l7.93,9.48l-14.56,0z" fill="#f0f0ff" fill-rule="nonzero" group-id="2,8" node-id="556" target-height="9.48199" target-width="14.554" target-x="35.281" target-y="161.643" id="svg_145"/>
   <path d="m49.85,29.62c0,0 -0.01,0 -0.01,0l-14.56,0c-0.56,0 -1.07,-0.31 -1.33,-0.8c-0.26,-0.5 -0.22,-1.1 0.1,-1.56l6.63,-9.48c0.27,-0.38 0.7,-0.62 1.16,-0.64c0.48,-0.01 0.92,0.18 1.22,0.54l7.8,9.33c0.3,0.27 0.5,0.67 0.5,1.11c-0.01,0.83 -0.68,1.5 -1.51,1.5zm-11.69,-3l8.46,0l-4.61,-5.51l-3.85,5.51z" fill="#6e6e96" fill-rule="nonzero" group-id="2,8" node-id="558" target-height="12.48199" target-width="17.57163" target-x="33.78437" target-y="160.143" id="svg_146"/>
   <path d="m41.91,18.64l4.11,7.73l-4.14,-3.25l1.99,3.57l-6.12,0.6l3.09,-7.12l-5.56,7.95l14.5,-0.06l-7.87,-9.42z" fill="#6e6e96" fill-opacity="0.1" fill-rule="nonzero" group-id="2,8,24" node-id="562" stroke-opacity="0.1" target-height="9.48199" target-width="14.499" target-x="35.281" target-y="161.643" id="svg_147"/>
   <path d="m34.32,28.63l6.11,-8.75l0.87,0.49l-2.75,6.34l4.51,-0.45l-1.62,-2.89l0.75,-0.64l2.27,1.78l-3,-5.63l0.83,-0.56l8.55,10.23l-16.52,0.08zm4.08,-4.09l-2.16,3.08l0.82,0l1.34,-3.08zm5.13,0.51l1.14,2.06l-5.02,0.49l9.07,-0.04l-4.12,-4.92l1.86,3.5l-0.75,0.62l-2.18,-1.71z" fill="#6e6e96" fill-opacity="0.1" fill-rule="nonzero" group-id="2,8,24" node-id="564" stroke-opacity="0.1" target-height="10.30901" target-width="16.525" target-x="34.319" target-y="161.321" id="svg_148"/>
   <path d="m181.99,69.43c-3.59,0 -6.51,-2.92 -6.51,-6.51c0,-0.82 0.67,-1.5 1.5,-1.5c0.83,0 1.5,0.68 1.5,1.5c0,1.94 1.57,3.51 3.51,3.51c1.93,0 3.5,-1.57 3.5,-3.51c0,-0.82 0.67,-1.5 1.5,-1.5c0.83,0 1.5,0.68 1.5,1.5c0,3.59 -2.92,6.51 -6.5,6.51z" fill="#6e6e96" fill-rule="nonzero" group-id="2,9" node-id="570" target-height="8.006" target-width="13.01199" target-x="175.479" target-y="204.424" id="svg_149"/>
   <path d="m181.99,68.62c-0.83,0 -1.5,-0.67 -1.5,-1.5l0,-10.78c0,-0.83 0.67,-1.5 1.5,-1.5c0.82,0 1.5,0.67 1.5,1.5l0,10.78c0,0.83 -0.68,1.5 -1.5,1.5z" fill="#6e6e96" fill-rule="nonzero" group-id="2,9" node-id="572" target-height="13.77899" target-width="3" target-x="180.485" target-y="197.841" id="svg_150"/>
   <path d="m185.02,60.87l-6.07,0c-0.83,0 -1.5,-0.67 -1.5,-1.5c0,-0.82 0.67,-1.5 1.5,-1.5l6.07,0c0.83,0 1.5,0.68 1.5,1.5c0,0.83 -0.67,1.5 -1.5,1.5z" fill="#6e6e96" fill-rule="nonzero" group-id="2,9" node-id="574" target-height="3" target-width="9.069" target-x="177.451" target-y="200.874" id="svg_151"/>
   <path d="m94.64,63.36c0,3.54 -2.05,6.4 -4.58,6.4c-2.52,0 -4.57,-2.86 -4.57,-6.4c0,-3.54 2.05,-9.33 4.57,-9.33c2.53,0 4.58,5.79 4.58,9.33z" fill="#b9ff5f" fill-rule="nonzero" group-id="2,10" node-id="579" target-height="15.73801" target-width="9.149" target-x="85.491" target-y="197.027" id="svg_152"/>
   <path d="m90.06,71.27c-3.4,0 -6.07,-3.48 -6.07,-7.91c0,-3.67 2.15,-10.83 6.07,-10.83c3.94,0 6.08,7.16 6.08,10.83c0,4.43 -2.67,7.91 -6.08,7.91zm0,-15.74c-1.01,0 -3.07,4.31 -3.07,7.83c0,2.66 1.41,4.9 3.07,4.9c1.67,0 3.08,-2.24 3.08,-4.9c0,-3.52 -2.06,-7.83 -3.08,-7.83z" fill="#6e6e96" fill-rule="nonzero" group-id="2,10" node-id="581" target-height="18.73801" target-width="12.149" target-x="83.991" target-y="195.528" id="svg_153"/>
   <path d="m90.06,77.12c-0.82,0 -1.5,-0.67 -1.5,-1.5l0,-5.85c0,-0.83 0.68,-1.5 1.5,-1.5c0.83,0 1.5,0.67 1.5,1.5l0,5.85c0,0.83 -0.67,1.5 -1.5,1.5z" fill="#6e6e96" fill-rule="nonzero" group-id="2,10" node-id="583" target-height="8.85699" target-width="3" target-x="88.565" target-y="211.266" id="svg_154"/>
   <path d="m163.76,26.35c0,2.45 -1.42,4.44 -3.17,4.44c-1.76,0 -3.18,-1.99 -3.18,-4.44c0,-2.45 1.42,-6.47 3.18,-6.47c1.75,0 3.17,4.02 3.17,6.47z" fill="#b9ff5f" fill-rule="nonzero" group-id="2,11" node-id="588" target-height="10.909" target-width="6.343" target-x="157.414" target-y="162.879" id="svg_155"/>
   <path d="m160.59,32.29c-2.62,0 -4.68,-2.61 -4.68,-5.94c0,-2.78 1.61,-7.97 4.68,-7.97c3.06,0 4.67,5.19 4.67,7.97c0,3.33 -2.05,5.94 -4.67,5.94zm0,-10.87c-0.65,0.48 -1.68,2.95 -1.68,4.93c0,1.68 0.89,2.94 1.68,2.94c0.78,0 1.67,-1.26 1.67,-2.94c0,-1.98 -1.03,-4.45 -1.67,-4.93z" fill="#6e6e96" fill-rule="nonzero" group-id="2,11" node-id="590" target-height="13.909" target-width="9.343" target-x="155.914" target-y="161.379" id="svg_156"/>
   <path d="m160.59,36.35c-0.83,0 -1.5,-0.67 -1.5,-1.5l0,-4.06c0,-0.83 0.67,-1.5 1.5,-1.5c0.82,0 1.5,0.67 1.5,1.5l0,4.06c0,0.83 -0.68,1.5 -1.5,1.5z" fill="#6e6e96" fill-rule="nonzero" group-id="2,11" node-id="592" target-height="7.05901" target-width="3" target-x="159.085" target-y="172.289" id="svg_157"/>
   <path d="m237.97,95.11l-227,0c-0.45,0 -0.87,-0.2 -1.16,-0.55c-0.28,-0.35 -0.4,-0.81 -0.31,-1.25l17,-85c0.14,-0.7 0.76,-1.2 1.47,-1.2l195,0c0.73,0 1.35,0.52 1.48,1.24l15,85c0.08,0.43 -0.04,0.88 -0.33,1.22c-0.28,0.34 -0.71,0.54 -1.15,0.54zm-225.17,-3l223.38,0l-14.47,-82l-192.51,0l-16.4,82z" fill="#6e6e96" fill-rule="nonzero" group-id="2" node-id="595" target-height="88" target-width="230.12" target-x="9.41" target-y="150.11" id="svg_158"/>
   <path d="m93.66,77.12l-7.34,0c-0.83,0 -1.5,-0.67 -1.5,-1.5c0,-0.83 0.67,-1.5 1.5,-1.5l7.34,0c0.82,0 1.5,0.67 1.5,1.5c0,0.83 -0.68,1.5 -1.5,1.5z" fill="#6e6e96" fill-opacity="0.25" fill-rule="nonzero" group-id="2,12" node-id="599" stroke-opacity="0.25" target-height="3" target-width="10.333" target-x="84.823" target-y="217.123" id="svg_159"/>
   <path d="m146.79,-33.02c0,12.5 -10.14,22.64 -22.65,22.64c-12.5,0 -22.64,-10.14 -22.64,-22.64c0,-12.51 10.14,-22.64 22.64,-22.64c12.51,0 22.65,10.13 22.65,22.64z" fill="#ffffff" fill-rule="nonzero" group-id="2,13" hidden="true" node-id="604" target-height="45.28599" target-width="45.28599" target-x="101.5" target-y="87.336" visibility="hidden" id="svg_160"/>
   <path d="m124.14,-8.88c-13.31,0 -24.14,-10.83 -24.14,-24.14c0,-13.31 10.83,-24.14 24.14,-24.14c13.32,0 24.15,10.83 24.15,24.14c0,13.31 -10.83,24.14 -24.15,24.14zm0,-45.28c-11.66,0 -21.14,9.48 -21.14,21.14c0,11.66 9.48,21.14 21.14,21.14c11.66,0 21.15,-9.48 21.15,-21.14c0,-11.66 -9.49,-21.14 -21.15,-21.14z" fill="#6e6e96" fill-rule="nonzero" group-id="2,13" hidden="true" node-id="606" target-height="48.28599" target-width="48.287" target-x="100" target-y="85.836" visibility="hidden" id="svg_161"/>
   <path d="m123.11,-75.25c-26.11,0 -47.28,21.16 -47.28,47.28c0,26.11 41.59,83.1 47.28,83.1c11.17,0 47.28,-56.99 47.28,-83.1c0,-26.12 -21.17,-47.28 -47.28,-47.28zm1.03,58.71c-10.01,0 -18.12,-8.12 -18.12,-18.13c0,-10.01 8.11,-18.13 18.12,-18.13c10.02,0 18.13,8.12 18.13,18.13c0,10.01 -8.11,18.13 -18.13,18.13z" fill="#ff9c9c" fill-rule="nonzero" group-id="2,13" hidden="true" node-id="608" target-height="130.38998" target-width="94.564" target-x="75.829" target-y="67.745" visibility="hidden" id="svg_162"/>
   <path d="m123.11,56.63c-4.7,0 -19.08,-19.9 -27.04,-32.45c-6.54,-10.31 -21.74,-36.02 -21.74,-52.15c0,-26.9 21.88,-48.78 48.78,-48.78c26.9,0 48.78,21.88 48.78,48.78c0,11.94 -7.35,31.43 -19.66,52.11c-8.92,14.99 -21.91,32.49 -29.12,32.49zm0,-130.38c-25.24,0 -45.78,20.53 -45.78,45.78c0,10.66 7.59,28.83 20.82,49.83c11.48,18.22 22.61,31.13 25.02,31.77c3.95,-0.1 14.54,-10.96 26.48,-31.02c9.3,-15.63 19.24,-37.12 19.24,-50.58c0,-25.25 -20.54,-45.78 -45.78,-45.78zm1.03,58.71c-10.82,0 -19.62,-8.81 -19.62,-19.63c0,-10.82 8.8,-19.63 19.62,-19.63c10.83,0 19.63,8.81 19.63,19.63c0,5.24 -2.04,10.17 -5.75,13.88c-3.7,3.7 -8.63,5.75 -13.88,5.75zm0,-36.26c-9.16,0 -16.62,7.46 -16.62,16.63c0,9.17 7.45,16.63 16.62,16.63c4.45,0 8.62,-1.73 11.76,-4.87c3.14,-3.14 4.87,-7.32 4.87,-11.76c0,-9.17 -7.46,-16.63 -16.63,-16.63z" fill="#6e6e96" fill-rule="nonzero" group-id="2,13" hidden="true" node-id="610" target-height="133.38998" target-width="97.564" target-x="74.328" target-y="66.245" visibility="hidden" id="svg_163"/>
   <path d="m159.71,-46.98c0.01,0.34 -0.22,-0.27 0,0c11.32,13.89 -0.23,52.09 -37.89,85.6c-3.32,2.95 -34.06,-38.5 -44.31,-65.59c0,0.09 -0.01,0.18 -0.01,0.27c0,25.22 40.17,80.26 45.66,80.26c10.79,0 45.66,-55.04 45.66,-80.26c0,-6.62 -6.57,-14.6 -9.11,-20.28z" fill="#e08080" fill-opacity="0.45" fill-rule="nonzero" group-id="2,13,25" hidden="true" node-id="614" stroke-opacity="0.45" target-height="100.53901" target-width="91.316" target-x="77.505" target-y="96.018" visibility="hidden" id="svg_164"/>
   <path d="m127.38,-69.66c9.99,0 20.69,5.07 27.84,10.97c-7.59,-9.2 -19.08,-15.06 -31.94,-15.06c-22.85,0 -45.47,20.39 -45.47,43.25c0,21.39 35.97,64.58 44.14,70.28c-12.07,-14.09 -35.79,-43.66 -35.79,-68.56c0,-25.44 18.36,-40.88 41.22,-40.88z" fill="#ffadad" fill-rule="nonzero" group-id="2,13" hidden="true" node-id="617" target-height="113.52899" target-width="77.41901" target-x="77.806" target-y="69.246" visibility="hidden" id="svg_165"/>
   <path d="m12.37,86.62l-1.4,7l227,0l-1.23,-7l-224.37,0z" fill="#6e6e96" fill-opacity="0.15" fill-rule="nonzero" group-id="2,14" node-id="622" stroke-opacity="0.15" target-height="7" target-width="227.001" target-x="10.971" target-y="229.623" id="svg_166"/>
   <path d="m58.16,-116.6c0,-0.09 0,-0.18 0,-0.27c0,-9.55 -8.42,-17.3 -18.82,-17.3c-8.95,0 -16.44,5.74 -18.34,13.44c-0.3,-0.02 -0.6,-0.04 -0.9,-0.04c-6.18,0 -11.19,4.61 -11.19,10.29c0,1.22 0.23,2.39 0.65,3.47c-1.73,2.25 -2.76,5.01 -2.76,7.98c0,7.53 6.56,13.65 14.71,13.82l0,0l28.93,0c9.91,0 17.94,-7.38 17.94,-16.49c0.01,-6.58 -4.18,-12.25 -10.22,-14.9z" fill="#ffffff" fill-rule="nonzero" group-id="2,15" hidden="true" node-id="627" target-height="48.96" target-width="61.577" target-x="6.805" target-y="8.833" visibility="hidden" id="svg_167"/>
   <path d="m50.44,-83.71l-28.92,0c-0.07,0 -0.13,0 -0.19,-0.01c-8.85,-0.25 -16.02,-7.09 -16.02,-15.31c0,-2.94 0.89,-5.77 2.58,-8.23c-0.32,-1.04 -0.48,-2.12 -0.48,-3.22c0,-6.43 5.57,-11.67 12.46,-11.79c2.55,-7.94 10.38,-13.4 19.47,-13.4c10.96,0 19.92,8.07 20.31,18.12c6.25,3.11 10.24,9.24 10.23,15.85c0,9.92 -8.72,17.99 -19.44,17.99zm-28.78,-3l28.78,0c9.07,0 16.44,-6.72 16.44,-14.99c0,-5.73 -3.66,-11.04 -9.33,-13.53c-0.54,-0.23 -0.89,-0.77 -0.89,-1.37l0,-0.19c0,-8.79 -7.77,-15.88 -17.32,-15.88c-8.02,0 -15.12,5.18 -16.89,12.3c-0.17,0.71 -0.84,1.19 -1.57,1.14c-0.26,-0.02 -0.52,-0.04 -0.78,-0.04c-5.34,0 -9.69,3.95 -9.69,8.79c0,1 0.19,1.99 0.55,2.93c0.19,0.49 0.11,1.04 -0.21,1.46c-1.6,2.08 -2.45,4.52 -2.45,7.06c0,6.64 5.94,12.17 13.24,12.32c0.04,0 0.08,0 0.12,0z" fill="#ccccde" fill-rule="nonzero" group-id="2,15" hidden="true" node-id="629" target-height="51.96" target-width="64.577" target-x="5.306" target-y="7.333" visibility="hidden" id="svg_168"/>
   <path d="m196.99,86.62c0,0 40.19,2.47 34.98,-27.04l4.77,27.04l-39.75,0z" fill="#6e6e96" fill-opacity="0.1" fill-rule="nonzero" group-id="2,16" node-id="634" stroke-opacity="0.1" target-height="27.09247" target-width="39.748" target-x="196.99" target-y="202.581" id="svg_169"/>
   <path d="m165.99,86.62c0,0 7,-12 26.5,-12c19.5,0 36.84,-9.94 36.84,-29.97l7.41,41.97l-70.75,0z" fill="#6e6e96" fill-opacity="0.05" fill-rule="nonzero" group-id="2,17" node-id="639" stroke-opacity="0.05" target-height="41.97301" target-width="70.74599" target-x="165.99" target-y="187.65" id="svg_170"/>
  </g>
 </g>

</svg>